<svg width="1058" height="273" viewBox="0 0 1058 273" fill="none" xmlns="http://www.w3.org/2000/svg">
<path d="M295.55 211.035C294.58 211.018 293.627 211.291 292.812 211.818C291.997 212.346 291.358 213.104 290.976 213.997C290.594 214.89 290.486 215.876 290.666 216.83C290.847 217.784 291.307 218.663 291.989 219.354C292.67 220.045 293.542 220.518 294.493 220.711C295.444 220.904 296.431 220.809 297.328 220.439C298.224 220.068 298.991 219.439 299.529 218.63C300.066 217.822 300.351 216.872 300.347 215.901C300.35 215.256 300.224 214.616 299.977 214.021C299.73 213.425 299.366 212.884 298.907 212.431C298.448 211.978 297.904 211.621 297.305 211.381C296.706 211.142 296.066 211.024 295.421 211.035H295.55ZM295.55 220.038C294.508 219.962 293.533 219.495 292.821 218.729C292.11 217.964 291.714 216.957 291.714 215.912C291.714 214.866 292.11 213.859 292.821 213.094C293.533 212.328 294.508 211.861 295.55 211.786V211.786C296.592 211.861 297.567 212.328 298.279 213.094C298.99 213.859 299.386 214.866 299.386 215.912C299.386 216.957 298.99 217.964 298.279 218.729C297.567 219.495 296.592 219.962 295.55 220.038V220.038Z" fill="#AA985D"/>
<path d="M296.3 216.072C296.604 216.008 296.876 215.841 297.071 215.599C297.267 215.357 297.372 215.054 297.37 214.743C297.387 214.531 297.35 214.319 297.264 214.124C297.178 213.93 297.046 213.759 296.878 213.629C296.367 213.326 295.778 213.184 295.186 213.222C294.669 213.224 294.154 213.267 293.644 213.35V218.773H294.522V216.48H295.122C295.262 216.458 295.406 216.467 295.543 216.505C295.68 216.544 295.807 216.611 295.916 216.702C296.026 216.793 296.114 216.906 296.177 217.034C296.239 217.162 296.274 217.302 296.278 217.444C296.316 217.919 296.439 218.384 296.642 218.816H297.563C297.381 218.393 297.265 217.945 297.22 217.487C297.113 216.587 296.771 216.158 296.3 216.072ZM295.143 215.729H294.522V213.886H295.143C296.107 213.886 296.449 214.358 296.449 214.851C296.449 215.344 295.85 215.729 295.143 215.729Z" fill="#AA985D"/>
<path d="M163.902 105.475V147.892H186.689L189.088 135.032H199.325C195.577 154.665 176.259 168.104 151.758 168.104C150.088 168.104 148.396 168.104 146.704 167.911C134.081 167.194 121.915 162.93 111.602 155.608C106.892 152.295 103.048 147.894 100.398 142.779C97.7471 137.664 96.3673 131.985 96.375 126.223C96.4097 120.037 97.7653 113.93 100.351 108.311C102.936 102.692 106.692 97.6911 111.367 93.6435C120.954 85.3458 133.094 80.5875 145.762 80.1617C146.576 80.1617 147.411 80.1617 148.246 80.1617C164.28 80.434 179.754 86.1046 192.172 96.2584C192.793 96.7728 192.943 96.88 193.093 96.9871C193.399 97.205 193.693 97.4412 193.971 97.6944L194.313 97.9945H220.463V52.2123H193.971V65.3082C178.079 55.7815 159.874 50.8134 141.35 50.9477H140.986C116.647 51.0758 93.3538 60.8661 76.2219 78.1684C62.5152 92.1646 55.0408 109.311 55.255 126.458C55.512 144.891 64.3785 162.06 80.2483 174.791C96.3845 187.353 116.26 194.144 136.703 194.081C139.251 194.081 141.843 194.081 144.391 193.781C164.887 192.11 182.941 187.351 195.791 180.557V186.215H223.933V135.246H233.656V194.274H218.985V220.766H284.456V194.274H269.85V135.225H303.003L305.316 148.085H328.189V105.475H163.902Z" fill="#AA985D"/>
<line x1="366" y1="49" x2="366" y2="221" stroke="#AA985D" stroke-width="2"/>
<path d="M411.613 84.2461C409.973 84.2461 408.562 83.8906 407.383 83.1797C406.203 82.4609 405.297 81.4688 404.664 80.2031C404.031 78.9297 403.715 77.457 403.715 75.7852V75.3281C403.715 73.6172 404.027 72.1172 404.652 70.8281C405.285 69.5312 406.168 68.5195 407.301 67.793C408.434 67.0586 409.754 66.6914 411.262 66.6914C412.527 66.6914 413.668 66.8555 414.684 67.1836C415.699 67.5039 416.574 67.9648 417.309 68.5664V72.2109H415.047L414.672 69.8438C414.328 69.5859 413.891 69.3828 413.359 69.2344C412.828 69.0859 412.211 69.0117 411.508 69.0117C410.547 69.0117 409.699 69.2773 408.965 69.8086C408.238 70.332 407.672 71.0664 407.266 72.0117C406.867 72.9492 406.668 74.0469 406.668 75.3047V75.7852C406.668 77.0273 406.859 78.1094 407.242 79.0312C407.633 79.9531 408.199 80.668 408.941 81.1758C409.691 81.6836 410.602 81.9375 411.672 81.9375C412.352 81.9375 412.949 81.875 413.465 81.75C413.988 81.625 414.434 81.4688 414.801 81.2812V77.918L412.012 77.7539V75.6562H417.754V82.4297C417.105 82.9375 416.277 83.3672 415.27 83.7188C414.27 84.0703 413.051 84.2461 411.613 84.2461ZM426.56 84.2461C425.365 84.2461 424.322 83.9805 423.431 83.4492C422.548 82.9102 421.861 82.168 421.368 81.2227C420.884 80.2773 420.642 79.1953 420.642 77.9766V77.4844C420.642 76.25 420.88 75.1523 421.357 74.1914C421.841 73.2227 422.505 72.4648 423.349 71.918C424.193 71.3633 425.154 71.0859 426.232 71.0859C427.38 71.0859 428.341 71.3164 429.115 71.7773C429.896 72.2383 430.486 72.8945 430.884 73.7461C431.282 74.5898 431.482 75.6055 431.482 76.793V78.4805H423.7L423.677 78.5391C423.708 79.2031 423.845 79.793 424.087 80.3086C424.337 80.8242 424.689 81.2305 425.142 81.5273C425.603 81.8242 426.161 81.9727 426.818 81.9727C427.505 81.9727 428.13 81.8789 428.693 81.6914C429.255 81.5039 429.775 81.2383 430.251 80.8945L431.177 82.7461C430.677 83.168 430.04 83.5234 429.267 83.8125C428.493 84.1016 427.591 84.2461 426.56 84.2461ZM423.747 76.4062H428.657V76.1016C428.657 75.5469 428.572 75.0625 428.4 74.6484C428.236 74.2266 427.974 73.8984 427.615 73.6641C427.263 73.4297 426.814 73.3125 426.267 73.3125C425.79 73.3125 425.372 73.4453 425.013 73.7109C424.654 73.9766 424.365 74.3398 424.146 74.8008C423.935 75.2539 423.79 75.7695 423.712 76.3477L423.747 76.4062ZM439.948 84.2461C438.729 84.2461 437.682 83.9727 436.807 83.4258C435.932 82.8789 435.26 82.1211 434.792 81.1523C434.323 80.1758 434.088 79.0547 434.088 77.7891V77.543C434.088 76.2852 434.323 75.1719 434.792 74.2031C435.26 73.2344 435.932 72.4727 436.807 71.918C437.682 71.3633 438.721 71.0859 439.924 71.0859C441.143 71.0859 442.19 71.3633 443.065 71.918C443.94 72.4648 444.612 73.2227 445.081 74.1914C445.549 75.1602 445.784 76.2773 445.784 77.543V77.7891C445.784 79.0547 445.549 80.1758 445.081 81.1523C444.612 82.1211 443.94 82.8789 443.065 83.4258C442.198 83.9727 441.159 84.2461 439.948 84.2461ZM439.948 81.9727C440.604 81.9727 441.143 81.7969 441.565 81.4453C441.995 81.0859 442.315 80.5938 442.526 79.9688C442.737 79.3359 442.842 78.6094 442.842 77.7891V77.543C442.842 76.7305 442.737 76.0117 442.526 75.3867C442.315 74.7617 441.995 74.2695 441.565 73.9102C441.135 73.5508 440.588 73.3711 439.924 73.3711C439.276 73.3711 438.737 73.5508 438.307 73.9102C437.878 74.2695 437.557 74.7617 437.346 75.3867C437.143 76.0117 437.042 76.7305 437.042 77.543V77.7891C437.042 78.6094 437.143 79.3359 437.346 79.9688C437.557 80.5938 437.878 81.0859 438.307 81.4453C438.745 81.7969 439.292 81.9727 439.948 81.9727ZM448.273 84V82.1953L450.031 81.8438V73.4883L448.18 73.1367V71.3203H452.75L452.902 72.9141L452.926 73.1719C453.262 72.5 453.672 71.9844 454.156 71.625C454.648 71.2656 455.222 71.0859 455.879 71.0859C456.097 71.0859 456.328 71.1055 456.57 71.1445C456.82 71.1836 457.023 71.2266 457.18 71.2734L456.84 74.0039L455.187 73.9102C454.648 73.8789 454.203 73.9844 453.851 74.2266C453.508 74.4688 453.219 74.8047 452.984 75.2344V81.8438L454.742 82.1953V84H448.273ZM464.45 89.1211C463.825 89.1211 463.13 89.0352 462.364 88.8633C461.607 88.6992 460.939 88.4688 460.36 88.1719L460.97 86.0156C461.47 86.2422 462.021 86.4258 462.622 86.5664C463.224 86.707 463.794 86.7773 464.333 86.7773C465.302 86.7773 466.009 86.5078 466.454 85.9688C466.907 85.4375 467.134 84.6836 467.134 83.707V82.7109C466.743 83.2109 466.278 83.5938 465.739 83.8594C465.2 84.1172 464.583 84.2461 463.888 84.2461C462.857 84.2461 461.966 83.9883 461.216 83.4727C460.474 82.957 459.903 82.2344 459.505 81.3047C459.114 80.375 458.919 79.2969 458.919 78.0703V77.8242C458.919 76.4727 459.114 75.293 459.505 74.2852C459.903 73.2773 460.47 72.4922 461.204 71.9297C461.946 71.3672 462.829 71.0859 463.853 71.0859C464.626 71.0859 465.298 71.2461 465.868 71.5664C466.439 71.8789 466.923 72.3281 467.321 72.9141L467.544 71.3203H470.087V83.7188C470.087 84.8203 469.864 85.7734 469.419 86.5781C468.974 87.3906 468.329 88.0156 467.485 88.4531C466.642 88.8984 465.63 89.1211 464.45 89.1211ZM464.685 81.9141C465.255 81.9141 465.739 81.793 466.138 81.5508C466.544 81.3086 466.876 80.957 467.134 80.4961V74.8477C466.876 74.4023 466.544 74.0547 466.138 73.8047C465.732 73.5469 465.251 73.418 464.696 73.418C464.048 73.418 463.513 73.6055 463.091 73.9805C462.677 74.3477 462.368 74.8633 462.165 75.5273C461.97 76.1836 461.872 76.9492 461.872 77.8242V78.0703C461.872 79.2422 462.095 80.1758 462.54 80.8711C462.993 81.5664 463.708 81.9141 464.685 81.9141ZM469.689 73.5469L468.446 71.3203H471.61V73.1367L469.689 73.5469ZM473.35 84V82.1953L475.108 81.8438V73.4883L473.245 73.1367V71.3203H478.061V81.8438L479.807 82.1953V84H473.35ZM474.991 68.4492V65.7188H478.061V68.4492H474.991ZM486.058 84.2461C484.769 84.2461 483.765 83.9141 483.047 83.25C482.328 82.5859 481.968 81.6719 481.968 80.5078C481.968 79.7109 482.187 79.0117 482.625 78.4102C483.062 77.8086 483.703 77.3398 484.547 77.0039C485.39 76.6602 486.414 76.4883 487.617 76.4883H489.55V75.4219C489.55 74.75 489.347 74.2148 488.941 73.8164C488.543 73.418 487.961 73.2188 487.195 73.2188C486.757 73.2188 486.371 73.2734 486.035 73.3828C485.699 73.4844 485.398 73.6328 485.132 73.8281L484.863 75.5391H482.695L482.672 72.4102C483.297 72.0039 483.992 71.6836 484.757 71.4492C485.523 71.207 486.375 71.0859 487.312 71.0859C488.922 71.0859 490.187 71.4648 491.109 72.2227C492.039 72.9727 492.504 74.0508 492.504 75.457V81.0469C492.504 81.2188 492.504 81.3867 492.504 81.5508C492.511 81.7148 492.523 81.875 492.539 82.0312L493.828 82.1953V84H489.972C489.894 83.7266 489.82 83.4609 489.75 83.2031C489.687 82.9453 489.64 82.6875 489.609 82.4297C489.187 82.9609 488.675 83.3984 488.074 83.7422C487.48 84.0781 486.808 84.2461 486.058 84.2461ZM486.726 81.9609C487.32 81.9609 487.875 81.8242 488.39 81.5508C488.906 81.2695 489.293 80.918 489.55 80.4961V78.375H487.582C486.699 78.375 486.031 78.582 485.578 78.9961C485.132 79.4023 484.91 79.8789 484.91 80.4258C484.91 80.918 485.066 81.2969 485.379 81.5625C485.691 81.8281 486.14 81.9609 486.726 81.9609ZM506.682 84V82.1953L508.545 81.8438V69.1992H505.112L504.854 71.3789H502.639V66.9375H517.416V71.3789H515.19L514.932 69.1992H511.498V81.8438L513.362 82.1953V84H506.682ZM524.593 84.2461C523.398 84.2461 522.355 83.9805 521.464 83.4492C520.582 82.9102 519.894 82.168 519.402 81.2227C518.918 80.2773 518.675 79.1953 518.675 77.9766V77.4844C518.675 76.25 518.914 75.1523 519.39 74.1914C519.875 73.2227 520.539 72.4648 521.382 71.918C522.226 71.3633 523.187 71.0859 524.265 71.0859C525.414 71.0859 526.375 71.3164 527.148 71.7773C527.929 72.2383 528.519 72.8945 528.918 73.7461C529.316 74.5898 529.515 75.6055 529.515 76.793V78.4805H521.734L521.71 78.5391C521.742 79.2031 521.878 79.793 522.121 80.3086C522.371 80.8242 522.722 81.2305 523.175 81.5273C523.636 81.8242 524.195 81.9727 524.851 81.9727C525.539 81.9727 526.164 81.8789 526.726 81.6914C527.289 81.5039 527.808 81.2383 528.285 80.8945L529.21 82.7461C528.71 83.168 528.074 83.5234 527.3 83.8125C526.527 84.1016 525.625 84.2461 524.593 84.2461ZM521.781 76.4062H526.691V76.1016C526.691 75.5469 526.605 75.0625 526.433 74.6484C526.269 74.2266 526.007 73.8984 525.648 73.6641C525.296 73.4297 524.847 73.3125 524.3 73.3125C523.824 73.3125 523.406 73.4453 523.046 73.7109C522.687 73.9766 522.398 74.3398 522.179 74.8008C521.968 75.2539 521.824 75.7695 521.746 76.3477L521.781 76.4062ZM537.958 84.2461C536.77 84.2461 535.739 83.9766 534.864 83.4375C533.997 82.8906 533.325 82.1406 532.848 81.1875C532.38 80.2266 532.145 79.1211 532.145 77.8711V77.4609C532.145 76.2344 532.38 75.1406 532.848 74.1797C533.317 73.2188 533.985 72.4648 534.852 71.918C535.727 71.3633 536.759 71.0859 537.946 71.0859C539.032 71.0859 539.977 71.2617 540.782 71.6133C541.587 71.957 542.247 72.3867 542.762 72.9023L542.774 76.2891H540.524L540.091 74.0508C539.872 73.8242 539.595 73.6445 539.259 73.5117C538.923 73.3711 538.555 73.3008 538.157 73.3008C537.509 73.3008 536.954 73.4766 536.493 73.8281C536.04 74.1797 535.692 74.668 535.45 75.293C535.216 75.9102 535.098 76.6328 535.098 77.4609V77.8711C535.098 78.7617 535.22 79.5117 535.462 80.1211C535.704 80.7305 536.04 81.1914 536.47 81.5039C536.907 81.8164 537.407 81.9727 537.97 81.9727C538.649 81.9727 539.2 81.7891 539.622 81.4219C540.052 81.0547 540.333 80.5469 540.466 79.8984H543.02L543.055 79.9688C542.962 80.7969 542.716 81.5352 542.317 82.1836C541.927 82.8242 541.372 83.3281 540.653 83.6953C539.942 84.0625 539.044 84.2461 537.958 84.2461ZM545.193 84V82.1953L546.951 81.8438V67.8867L545.088 67.5352V65.7188H549.893V72.9609C550.307 72.3672 550.818 71.9062 551.428 71.5781C552.037 71.25 552.725 71.0859 553.49 71.0859C554.795 71.0859 555.818 71.5039 556.561 72.3398C557.311 73.168 557.686 74.4492 557.686 76.1836V81.8438L559.443 82.1953V84H553.08V82.1953L554.744 81.8438V76.1602C554.744 75.1914 554.549 74.4922 554.158 74.0625C553.768 73.6328 553.193 73.418 552.436 73.418C551.897 73.418 551.408 73.5391 550.971 73.7812C550.541 74.0156 550.182 74.3477 549.893 74.7773V81.8438L551.557 82.1953V84H545.193Z" fill="#AA985D"/>
<path d="M403.242 138V134.391L405.727 134.039L417.023 103.875H422.766L433.922 134.039L436.406 134.391V138H425.555V134.391L427.992 133.945L426.188 128.578H413.484L411.633 133.945L414.094 134.391V138H403.242ZM415.031 124.055H424.664L420.234 111.422L419.93 110.508H419.789L419.461 111.469L415.031 124.055ZM440.857 138V134.391L444.397 133.688V105.773L440.647 105.07V101.438H450.279V133.688L453.818 134.391V138H440.857ZM469.356 138.492C466.637 138.492 464.512 137.633 462.981 135.914C461.465 134.18 460.707 131.492 460.707 127.852V116.977L457.848 116.273V112.641H460.707H466.613V127.898C466.613 130.086 466.957 131.625 467.645 132.516C468.348 133.391 469.426 133.828 470.879 133.828C472.16 133.828 473.246 133.578 474.137 133.078C475.043 132.562 475.762 131.836 476.293 130.898V116.977L473.106 116.273V112.641H476.293H482.199V133.688L485.199 134.391V138H476.973L476.574 134.555C475.778 135.82 474.762 136.797 473.528 137.484C472.309 138.156 470.918 138.492 469.356 138.492ZM489.768 138V134.391L493.307 133.688V116.977L489.58 116.273V112.641H498.721L499.002 115.969C499.83 114.766 500.862 113.836 502.096 113.18C503.346 112.508 504.791 112.172 506.432 112.172C508.088 112.172 509.502 112.547 510.674 113.297C511.862 114.031 512.76 115.148 513.369 116.648C514.151 115.258 515.174 114.164 516.44 113.367C517.721 112.57 519.221 112.172 520.94 112.172C523.487 112.172 525.487 113.039 526.94 114.773C528.408 116.508 529.143 119.133 529.143 122.648V133.688L532.682 134.391V138H519.908V134.391L523.237 133.688V122.625C523.237 120.484 522.877 118.984 522.158 118.125C521.44 117.266 520.385 116.836 518.994 116.836C517.698 116.836 516.627 117.25 515.783 118.078C514.955 118.906 514.416 119.961 514.166 121.242V133.688L517.377 134.391V138H505.073V134.391L508.283 133.688V122.625C508.283 120.562 507.916 119.086 507.182 118.195C506.448 117.289 505.385 116.836 503.994 116.836C502.838 116.836 501.862 117.07 501.065 117.539C500.283 118.008 499.658 118.672 499.19 119.531V133.688L502.494 134.391V138H489.768ZM537.203 138V134.391L540.719 133.688V116.977L537.016 116.273V112.641H546.157L546.461 116.32C547.305 115.008 548.352 113.992 549.602 113.273C550.867 112.539 552.297 112.172 553.891 112.172C556.5 112.172 558.532 112.977 559.985 114.586C561.438 116.18 562.164 118.68 562.164 122.086V133.688L565.68 134.391V138H552.953V134.391L556.258 133.688V122.133C556.258 120.211 555.875 118.852 555.11 118.055C554.344 117.242 553.203 116.836 551.688 116.836C550.547 116.836 549.547 117.094 548.688 117.609C547.844 118.109 547.157 118.812 546.625 119.719V133.688L549.836 134.391V138H537.203ZM570.084 138V134.391L573.6 133.688V116.977L569.873 116.273V112.641H579.506V133.688L582.998 134.391V138H570.084ZM573.366 106.898V101.438H579.506V106.898H573.366ZM601.042 138V134.391L603.526 134.039L614.823 103.875H620.565L631.721 134.039L634.206 134.391V138H623.354V134.391L625.792 133.945L623.987 128.578H611.284L609.432 133.945L611.893 134.391V138H601.042ZM612.831 124.055H622.463L618.034 111.422L617.729 110.508H617.588L617.26 111.469L612.831 124.055ZM649.602 138.492C647.79 138.492 646.094 138.32 644.516 137.977C642.954 137.617 641.383 137.094 639.805 136.406L639.735 129.703H643.977L644.868 133.359C645.54 133.656 646.227 133.891 646.93 134.062C647.649 134.219 648.446 134.297 649.321 134.297C651.008 134.297 652.196 134 652.883 133.406C653.587 132.812 653.938 132.078 653.938 131.203C653.938 130.359 653.571 129.641 652.837 129.047C652.118 128.438 650.735 127.914 648.688 127.477C645.657 126.82 643.423 125.867 641.985 124.617C640.563 123.352 639.852 121.711 639.852 119.695C639.852 118.305 640.219 117.047 640.954 115.922C641.704 114.797 642.798 113.898 644.235 113.227C645.688 112.539 647.469 112.195 649.579 112.195C651.501 112.195 653.204 112.398 654.688 112.805C656.188 113.195 657.462 113.719 658.508 114.375L658.649 120.82H654.454L653.727 117.469C653.243 117.125 652.68 116.859 652.04 116.672C651.399 116.484 650.665 116.391 649.837 116.391C648.54 116.391 647.516 116.68 646.766 117.258C646.016 117.82 645.641 118.531 645.641 119.391C645.641 119.891 645.758 120.344 645.993 120.75C646.243 121.156 646.712 121.531 647.399 121.875C648.102 122.203 649.126 122.523 650.469 122.836C653.766 123.602 656.126 124.602 657.548 125.836C658.969 127.07 659.68 128.703 659.68 130.734C659.68 133 658.852 134.859 657.196 136.312C655.54 137.766 653.008 138.492 649.602 138.492ZM675.663 138.492C673.85 138.492 672.155 138.32 670.577 137.977C669.014 137.617 667.444 137.094 665.866 136.406L665.796 129.703H670.038L670.928 133.359C671.6 133.656 672.288 133.891 672.991 134.062C673.71 134.219 674.507 134.297 675.382 134.297C677.069 134.297 678.257 134 678.944 133.406C679.647 132.812 679.999 132.078 679.999 131.203C679.999 130.359 679.632 129.641 678.897 129.047C678.178 128.438 676.796 127.914 674.749 127.477C671.717 126.82 669.483 125.867 668.046 124.617C666.624 123.352 665.913 121.711 665.913 119.695C665.913 118.305 666.28 117.047 667.014 115.922C667.764 114.797 668.858 113.898 670.296 113.227C671.749 112.539 673.53 112.195 675.639 112.195C677.561 112.195 679.264 112.398 680.749 112.805C682.249 113.195 683.522 113.719 684.569 114.375L684.71 120.82H680.514L679.788 117.469C679.303 117.125 678.741 116.859 678.1 116.672C677.46 116.484 676.725 116.391 675.897 116.391C674.6 116.391 673.577 116.68 672.827 117.258C672.077 117.82 671.702 118.531 671.702 119.391C671.702 119.891 671.819 120.344 672.053 120.75C672.303 121.156 672.772 121.531 673.46 121.875C674.163 122.203 675.186 122.523 676.53 122.836C679.827 123.602 682.186 124.602 683.608 125.836C685.03 127.07 685.741 128.703 685.741 130.734C685.741 133 684.913 134.859 683.257 136.312C681.6 137.766 679.069 138.492 675.663 138.492ZM702.919 138.492C700.481 138.492 698.388 137.945 696.638 136.852C694.888 135.758 693.544 134.242 692.606 132.305C691.669 130.352 691.2 128.109 691.2 125.578V125.086C691.2 122.57 691.669 120.344 692.606 118.406C693.544 116.469 694.888 114.945 696.638 113.836C698.388 112.727 700.466 112.172 702.872 112.172C705.309 112.172 707.403 112.727 709.153 113.836C710.903 114.93 712.247 116.445 713.184 118.383C714.122 120.32 714.591 122.555 714.591 125.086V125.578C714.591 128.109 714.122 130.352 713.184 132.305C712.247 134.242 710.903 135.758 709.153 136.852C707.419 137.945 705.341 138.492 702.919 138.492ZM702.919 133.945C704.231 133.945 705.309 133.594 706.153 132.891C707.013 132.172 707.653 131.188 708.075 129.938C708.497 128.672 708.708 127.219 708.708 125.578V125.086C708.708 123.461 708.497 122.023 708.075 120.773C707.653 119.523 707.013 118.539 706.153 117.82C705.294 117.102 704.2 116.742 702.872 116.742C701.575 116.742 700.497 117.102 699.638 117.82C698.778 118.539 698.138 119.523 697.716 120.773C697.309 122.023 697.106 123.461 697.106 125.086V125.578C697.106 127.219 697.309 128.672 697.716 129.938C698.138 131.188 698.778 132.172 699.638 132.891C700.513 133.594 701.606 133.945 702.919 133.945ZM732.026 138.492C729.651 138.492 727.589 137.953 725.839 136.875C724.104 135.781 722.761 134.281 721.807 132.375C720.87 130.453 720.401 128.242 720.401 125.742V124.922C720.401 122.469 720.87 120.281 721.807 118.359C722.745 116.438 724.081 114.93 725.815 113.836C727.565 112.727 729.628 112.172 732.003 112.172C734.175 112.172 736.065 112.523 737.675 113.227C739.284 113.914 740.604 114.773 741.636 115.805L741.659 122.578H737.159L736.292 118.102C735.854 117.648 735.3 117.289 734.628 117.023C733.956 116.742 733.222 116.602 732.425 116.602C731.128 116.602 730.018 116.953 729.097 117.656C728.19 118.359 727.495 119.336 727.011 120.586C726.542 121.82 726.307 123.266 726.307 124.922V125.742C726.307 127.523 726.55 129.023 727.034 130.242C727.518 131.461 728.19 132.383 729.05 133.008C729.925 133.633 730.925 133.945 732.05 133.945C733.409 133.945 734.511 133.578 735.354 132.844C736.214 132.109 736.776 131.094 737.042 129.797H742.151L742.222 129.938C742.034 131.594 741.542 133.07 740.745 134.367C739.964 135.648 738.854 136.656 737.417 137.391C735.995 138.125 734.198 138.492 732.026 138.492ZM747.259 138V134.391L750.774 133.688V116.977L747.048 116.273V112.641H756.681V133.688L760.173 134.391V138H747.259ZM750.54 106.898V101.438H756.681V106.898H750.54ZM773.155 138.492C770.577 138.492 768.569 137.828 767.132 136.5C765.694 135.172 764.976 133.344 764.976 131.016C764.976 129.422 765.413 128.023 766.288 126.82C767.163 125.617 768.444 124.68 770.132 124.008C771.819 123.32 773.866 122.977 776.272 122.977H780.14V120.844C780.14 119.5 779.733 118.43 778.921 117.633C778.124 116.836 776.96 116.438 775.429 116.438C774.554 116.438 773.78 116.547 773.108 116.766C772.437 116.969 771.835 117.266 771.304 117.656L770.765 121.078H766.429L766.382 114.82C767.632 114.008 769.022 113.367 770.554 112.898C772.085 112.414 773.788 112.172 775.663 112.172C778.882 112.172 781.413 112.93 783.257 114.445C785.116 115.945 786.046 118.102 786.046 120.914V132.094C786.046 132.438 786.046 132.773 786.046 133.102C786.062 133.43 786.085 133.75 786.116 134.062L788.694 134.391V138H780.983C780.827 137.453 780.679 136.922 780.538 136.406C780.413 135.891 780.319 135.375 780.257 134.859C779.413 135.922 778.39 136.797 777.187 137.484C775.999 138.156 774.655 138.492 773.155 138.492ZM774.491 133.922C775.679 133.922 776.788 133.648 777.819 133.102C778.851 132.539 779.624 131.836 780.14 130.992V126.75H776.202C774.437 126.75 773.101 127.164 772.194 127.992C771.304 128.805 770.858 129.758 770.858 130.852C770.858 131.836 771.171 132.594 771.796 133.125C772.421 133.656 773.319 133.922 774.491 133.922ZM802.591 138.445C800.435 138.445 798.755 137.844 797.552 136.641C796.349 135.422 795.747 133.484 795.747 130.828V116.859H792.044V112.641H795.747V106.477H801.63V112.641H806.646V116.859H801.63V130.828C801.63 131.906 801.849 132.695 802.286 133.195C802.739 133.68 803.349 133.922 804.114 133.922C804.552 133.922 805.036 133.883 805.568 133.805C806.114 133.727 806.552 133.648 806.88 133.57L807.489 137.719C806.802 137.922 806.013 138.094 805.122 138.234C804.247 138.375 803.403 138.445 802.591 138.445ZM812.316 138V134.391L815.831 133.688V116.977L812.105 116.273V112.641H821.737V133.688L825.23 134.391V138H812.316ZM815.597 106.898V101.438H821.737V106.898H815.597ZM841.658 138.492C839.22 138.492 837.126 137.945 835.376 136.852C833.626 135.758 832.283 134.242 831.345 132.305C830.408 130.352 829.939 128.109 829.939 125.578V125.086C829.939 122.57 830.408 120.344 831.345 118.406C832.283 116.469 833.626 114.945 835.376 113.836C837.126 112.727 839.204 112.172 841.611 112.172C844.048 112.172 846.142 112.727 847.892 113.836C849.642 114.93 850.986 116.445 851.923 118.383C852.861 120.32 853.329 122.555 853.329 125.086V125.578C853.329 128.109 852.861 130.352 851.923 132.305C850.986 134.242 849.642 135.758 847.892 136.852C846.158 137.945 844.079 138.492 841.658 138.492ZM841.658 133.945C842.97 133.945 844.048 133.594 844.892 132.891C845.751 132.172 846.392 131.188 846.814 129.938C847.236 128.672 847.447 127.219 847.447 125.578V125.086C847.447 123.461 847.236 122.023 846.814 120.773C846.392 119.523 845.751 118.539 844.892 117.82C844.033 117.102 842.939 116.742 841.611 116.742C840.314 116.742 839.236 117.102 838.376 117.82C837.517 118.539 836.876 119.523 836.454 120.773C836.048 122.023 835.845 123.461 835.845 125.086V125.578C835.845 127.219 836.048 128.672 836.454 129.938C836.876 131.188 837.517 132.172 838.376 132.891C839.251 133.594 840.345 133.945 841.658 133.945ZM858.367 138V134.391L861.882 133.688V116.977L858.179 116.273V112.641H867.32L867.624 116.32C868.468 115.008 869.515 113.992 870.765 113.273C872.031 112.539 873.46 112.172 875.054 112.172C877.663 112.172 879.695 112.977 881.148 114.586C882.601 116.18 883.327 118.68 883.327 122.086V133.688L886.843 134.391V138H874.117V134.391L877.421 133.688V122.133C877.421 120.211 877.038 118.852 876.273 118.055C875.507 117.242 874.367 116.836 872.851 116.836C871.71 116.836 870.71 117.094 869.851 117.609C869.007 118.109 868.32 118.812 867.788 119.719V133.688L870.999 134.391V138H858.367ZM917.027 138.492C914.589 138.492 912.496 137.945 910.746 136.852C908.996 135.758 907.652 134.242 906.714 132.305C905.777 130.352 905.308 128.109 905.308 125.578V125.086C905.308 122.57 905.777 120.344 906.714 118.406C907.652 116.469 908.996 114.945 910.746 113.836C912.496 112.727 914.574 112.172 916.98 112.172C919.418 112.172 921.511 112.727 923.261 113.836C925.011 114.93 926.355 116.445 927.293 118.383C928.23 120.32 928.699 122.555 928.699 125.086V125.578C928.699 128.109 928.23 130.352 927.293 132.305C926.355 134.242 925.011 135.758 923.261 136.852C921.527 137.945 919.449 138.492 917.027 138.492ZM917.027 133.945C918.339 133.945 919.418 133.594 920.261 132.891C921.121 132.172 921.761 131.188 922.183 129.938C922.605 128.672 922.816 127.219 922.816 125.578V125.086C922.816 123.461 922.605 122.023 922.183 120.773C921.761 119.523 921.121 118.539 920.261 117.82C919.402 117.102 918.308 116.742 916.98 116.742C915.683 116.742 914.605 117.102 913.746 117.82C912.886 118.539 912.246 119.523 911.824 120.773C911.418 122.023 911.214 123.461 911.214 125.086V125.578C911.214 127.219 911.418 128.672 911.824 129.938C912.246 131.188 912.886 132.172 913.746 132.891C914.621 133.594 915.714 133.945 917.027 133.945ZM934.064 138V134.391L937.603 133.688V116.859H933.736V112.641H937.603V109.664C937.603 106.883 938.369 104.734 939.9 103.219C941.447 101.703 943.603 100.945 946.369 100.945C947.009 100.945 947.697 101 948.431 101.109C949.166 101.203 949.838 101.328 950.447 101.484L949.861 105.914C949.533 105.836 949.127 105.773 948.642 105.727C948.158 105.664 947.681 105.633 947.213 105.633C945.963 105.633 945.025 105.977 944.4 106.664C943.791 107.352 943.486 108.352 943.486 109.664V112.641H949.158V116.859H943.486V133.688L947.916 134.391V138H934.064ZM403.547 198V194.391L407.273 193.688V168.211L403.547 167.508V163.875H407.273H413.18H417.188V167.508L413.18 168.211V193.477H423.844L424.242 188.32H428.766V198H403.547ZM443.812 198.492C441.375 198.492 439.281 197.945 437.531 196.852C435.781 195.758 434.438 194.242 433.5 192.305C432.562 190.352 432.094 188.109 432.094 185.578V185.086C432.094 182.57 432.562 180.344 433.5 178.406C434.438 176.469 435.781 174.945 437.531 173.836C439.281 172.727 441.359 172.172 443.766 172.172C446.203 172.172 448.297 172.727 450.047 173.836C451.797 174.93 453.141 176.445 454.078 178.383C455.016 180.32 455.484 182.555 455.484 185.086V185.578C455.484 188.109 455.016 190.352 454.078 192.305C453.141 194.242 451.797 195.758 450.047 196.852C448.312 197.945 446.234 198.492 443.812 198.492ZM443.812 193.945C445.125 193.945 446.203 193.594 447.047 192.891C447.906 192.172 448.547 191.188 448.969 189.938C449.391 188.672 449.602 187.219 449.602 185.578V185.086C449.602 183.461 449.391 182.023 448.969 180.773C448.547 179.523 447.906 178.539 447.047 177.82C446.188 177.102 445.094 176.742 443.766 176.742C442.469 176.742 441.391 177.102 440.531 177.82C439.672 178.539 439.031 179.523 438.609 180.773C438.203 182.023 438 183.461 438 185.086V185.578C438 187.219 438.203 188.672 438.609 189.938C439.031 191.188 439.672 192.172 440.531 192.891C441.406 193.594 442.5 193.945 443.812 193.945ZM469.383 198.492C467.57 198.492 465.875 198.32 464.297 197.977C462.734 197.617 461.164 197.094 459.586 196.406L459.516 189.703H463.758L464.648 193.359C465.32 193.656 466.008 193.891 466.711 194.062C467.43 194.219 468.227 194.297 469.102 194.297C470.789 194.297 471.977 194 472.664 193.406C473.367 192.812 473.719 192.078 473.719 191.203C473.719 190.359 473.352 189.641 472.617 189.047C471.898 188.438 470.516 187.914 468.469 187.477C465.438 186.82 463.203 185.867 461.766 184.617C460.344 183.352 459.633 181.711 459.633 179.695C459.633 178.305 460 177.047 460.734 175.922C461.484 174.797 462.578 173.898 464.016 173.227C465.469 172.539 467.25 172.195 469.359 172.195C471.281 172.195 472.984 172.398 474.469 172.805C475.969 173.195 477.242 173.719 478.289 174.375L478.43 180.82H474.234L473.508 177.469C473.023 177.125 472.461 176.859 471.82 176.672C471.18 176.484 470.445 176.391 469.617 176.391C468.32 176.391 467.297 176.68 466.547 177.258C465.797 177.82 465.422 178.531 465.422 179.391C465.422 179.891 465.539 180.344 465.773 180.75C466.023 181.156 466.492 181.531 467.18 181.875C467.883 182.203 468.906 182.523 470.25 182.836C473.547 183.602 475.906 184.602 477.328 185.836C478.75 187.07 479.461 188.703 479.461 190.734C479.461 193 478.633 194.859 476.977 196.312C475.32 197.766 472.789 198.492 469.383 198.492ZM494.414 198V194.391L496.898 194.039L508.195 163.875H513.938L525.094 194.039L527.578 194.391V198H516.727V194.391L519.164 193.945L517.359 188.578H504.656L502.805 193.945L505.266 194.391V198H494.414ZM506.203 184.055H515.836L511.406 171.422L511.102 170.508H510.961L510.633 171.469L506.203 184.055ZM529.992 198V194.391L533.508 193.688V176.977L529.805 176.273V172.641H538.945L539.25 176.32C540.094 175.008 541.141 173.992 542.391 173.273C543.656 172.539 545.086 172.172 546.68 172.172C549.289 172.172 551.32 172.977 552.773 174.586C554.227 176.18 554.953 178.68 554.953 182.086V193.688L558.469 194.391V198H545.742V194.391L549.047 193.688V182.133C549.047 180.211 548.664 178.852 547.898 178.055C547.133 177.242 545.992 176.836 544.477 176.836C543.336 176.836 542.336 177.094 541.477 177.609C540.633 178.109 539.945 178.812 539.414 179.719V193.688L542.625 194.391V198H529.992ZM572.016 208.242C570.766 208.242 569.375 208.07 567.844 207.727C566.328 207.398 564.992 206.938 563.836 206.344L565.055 202.031C566.055 202.484 567.156 202.852 568.359 203.133C569.562 203.414 570.703 203.555 571.781 203.555C573.719 203.555 575.133 203.016 576.023 201.938C576.93 200.875 577.383 199.367 577.383 197.414V195.422C576.602 196.422 575.672 197.188 574.594 197.719C573.516 198.234 572.281 198.492 570.891 198.492C568.828 198.492 567.047 197.977 565.547 196.945C564.062 195.914 562.922 194.469 562.125 192.609C561.344 190.75 560.953 188.594 560.953 186.141V185.648C560.953 182.945 561.344 180.586 562.125 178.57C562.922 176.555 564.055 174.984 565.523 173.859C567.008 172.734 568.773 172.172 570.82 172.172C572.367 172.172 573.711 172.492 574.852 173.133C575.992 173.758 576.961 174.656 577.758 175.828L578.203 172.641H583.289V197.438C583.289 199.641 582.844 201.547 581.953 203.156C581.062 204.781 579.773 206.031 578.086 206.906C576.398 207.797 574.375 208.242 572.016 208.242ZM572.484 193.828C573.625 193.828 574.594 193.586 575.391 193.102C576.203 192.617 576.867 191.914 577.383 190.992V179.695C576.867 178.805 576.203 178.109 575.391 177.609C574.578 177.094 573.617 176.836 572.508 176.836C571.211 176.836 570.141 177.211 569.297 177.961C568.469 178.695 567.852 179.727 567.445 181.055C567.055 182.367 566.859 183.898 566.859 185.648V186.141C566.859 188.484 567.305 190.352 568.195 191.742C569.102 193.133 570.531 193.828 572.484 193.828ZM582.492 177.094L580.008 172.641H586.336V176.273L582.492 177.094ZM600.211 198.492C597.82 198.492 595.734 197.961 593.953 196.898C592.188 195.82 590.812 194.336 589.828 192.445C588.859 190.555 588.375 188.391 588.375 185.953V184.969C588.375 182.5 588.852 180.305 589.805 178.383C590.773 176.445 592.102 174.93 593.789 173.836C595.477 172.727 597.398 172.172 599.555 172.172C601.852 172.172 603.773 172.633 605.32 173.555C606.883 174.477 608.062 175.789 608.859 177.492C609.656 179.18 610.055 181.211 610.055 183.586V186.961H594.492L594.445 187.078C594.508 188.406 594.781 189.586 595.266 190.617C595.766 191.648 596.469 192.461 597.375 193.055C598.297 193.648 599.414 193.945 600.727 193.945C602.102 193.945 603.352 193.758 604.477 193.383C605.602 193.008 606.641 192.477 607.594 191.789L609.445 195.492C608.445 196.336 607.172 197.047 605.625 197.625C604.078 198.203 602.273 198.492 600.211 198.492ZM594.586 182.812H604.406V182.203C604.406 181.094 604.234 180.125 603.891 179.297C603.562 178.453 603.039 177.797 602.32 177.328C601.617 176.859 600.719 176.625 599.625 176.625C598.672 176.625 597.836 176.891 597.117 177.422C596.398 177.953 595.82 178.68 595.383 179.602C594.961 180.508 594.672 181.539 594.516 182.695L594.586 182.812ZM613.078 198V194.391L616.617 193.688V165.773L612.867 165.07V161.438H622.5V193.688L626.039 194.391V198H613.078ZM640.148 198.492C637.758 198.492 635.672 197.961 633.891 196.898C632.125 195.82 630.75 194.336 629.766 192.445C628.797 190.555 628.312 188.391 628.312 185.953V184.969C628.312 182.5 628.789 180.305 629.742 178.383C630.711 176.445 632.039 174.93 633.727 173.836C635.414 172.727 637.336 172.172 639.492 172.172C641.789 172.172 643.711 172.633 645.258 173.555C646.82 174.477 648 175.789 648.797 177.492C649.594 179.18 649.992 181.211 649.992 183.586V186.961H634.43L634.383 187.078C634.445 188.406 634.719 189.586 635.203 190.617C635.703 191.648 636.406 192.461 637.312 193.055C638.234 193.648 639.352 193.945 640.664 193.945C642.039 193.945 643.289 193.758 644.414 193.383C645.539 193.008 646.578 192.477 647.531 191.789L649.383 195.492C648.383 196.336 647.109 197.047 645.562 197.625C644.016 198.203 642.211 198.492 640.148 198.492ZM634.523 182.812H644.344V182.203C644.344 181.094 644.172 180.125 643.828 179.297C643.5 178.453 642.977 177.797 642.258 177.328C641.555 176.859 640.656 176.625 639.562 176.625C638.609 176.625 637.773 176.891 637.055 177.422C636.336 177.953 635.758 178.68 635.32 179.602C634.898 180.508 634.609 181.539 634.453 182.695L634.523 182.812ZM664.055 198.492C662.242 198.492 660.547 198.32 658.969 197.977C657.406 197.617 655.836 197.094 654.258 196.406L654.188 189.703H658.43L659.32 193.359C659.992 193.656 660.68 193.891 661.383 194.062C662.102 194.219 662.898 194.297 663.773 194.297C665.461 194.297 666.648 194 667.336 193.406C668.039 192.812 668.391 192.078 668.391 191.203C668.391 190.359 668.023 189.641 667.289 189.047C666.57 188.438 665.188 187.914 663.141 187.477C660.109 186.82 657.875 185.867 656.438 184.617C655.016 183.352 654.305 181.711 654.305 179.695C654.305 178.305 654.672 177.047 655.406 175.922C656.156 174.797 657.25 173.898 658.688 173.227C660.141 172.539 661.922 172.195 664.031 172.195C665.953 172.195 667.656 172.398 669.141 172.805C670.641 173.195 671.914 173.719 672.961 174.375L673.102 180.82H668.906L668.18 177.469C667.695 177.125 667.133 176.859 666.492 176.672C665.852 176.484 665.117 176.391 664.289 176.391C662.992 176.391 661.969 176.68 661.219 177.258C660.469 177.82 660.094 178.531 660.094 179.391C660.094 179.891 660.211 180.344 660.445 180.75C660.695 181.156 661.164 181.531 661.852 181.875C662.555 182.203 663.578 182.523 664.922 182.836C668.219 183.602 670.578 184.602 672 185.836C673.422 187.07 674.133 188.703 674.133 190.734C674.133 193 673.305 194.859 671.648 196.312C669.992 197.766 667.461 198.492 664.055 198.492Z" fill="#AA985D"/>
</svg>
